<svg width="185" height="56" viewBox="0 0 185 56" fill="none" xmlns="http://www.w3.org/2000/svg">
<g clip-path="url(#clip0_5194_23683)">
<path d="M3.66006 5.67602C-0.923647 10.9348 -0.662313 19.0455 4.41191 24.1145L6.79917 26.4997L8.04984 25.2501C8.30635 24.9949 8.65347 24.8516 9.01532 24.8516C9.37716 24.8516 9.72429 24.9949 9.9808 25.2501C10.1126 25.3816 10.2173 25.5378 10.2886 25.7098C10.36 25.8818 10.3968 26.0662 10.3968 26.2524C10.3968 26.4386 10.36 26.623 10.2886 26.795C10.2173 26.967 10.1126 27.1232 9.9808 27.2547L8.76747 28.466C8.76747 28.466 8.77265 28.466 8.77265 28.4701L8.43354 28.8082C8.30169 28.9397 8.19708 29.0959 8.1257 29.2679C8.05432 29.4399 8.01758 29.6243 8.01758 29.8105C8.01758 29.9967 8.05432 30.1811 8.1257 30.3531C8.19708 30.5251 8.30169 30.6813 8.43354 30.8128C8.69005 31.068 9.03718 31.2112 9.39902 31.2112C9.76086 31.2112 10.108 31.068 10.3645 30.8128L12.5889 28.5914C12.6333 28.5452 12.6725 28.4945 12.7061 28.44L12.7103 28.4359C13.7971 27.3501 13.7888 25.5768 12.6916 24.4827L8.3008 20.0981C5.27472 17.0762 5.24154 12.1627 8.22821 9.18225L8.46776 8.94269C11.4555 5.96225 16.3741 5.99232 19.4002 9.01839L21.6091 11.2242C21.383 10.9651 21.2636 10.6299 21.2747 10.2863C21.2859 9.94259 21.4269 9.61592 21.6692 9.37202C21.801 9.24008 21.9575 9.1354 22.1297 9.06398C22.302 8.99256 22.4866 8.9558 22.6731 8.9558C22.8596 8.9558 23.0442 8.99256 23.2165 9.06398C23.3887 9.1354 23.5452 9.24008 23.6769 9.37202L23.7755 9.47054C23.7755 9.47054 23.7755 9.46639 23.7796 9.46639L25.2315 10.9172C25.7863 11.471 26.6833 11.471 27.2381 10.9172C27.4937 10.6613 27.6373 10.3144 27.6373 9.95277C27.6373 9.59109 27.4937 9.24421 27.2381 8.98832L25.7479 7.4981L25.7562 7.49084L23.6801 5.4178C18.0168 -0.251681 8.84835 -0.274496 3.66109 5.67602H3.66006Z" fill="#FFC107"/>
<path d="M4.77184 48.7688C10.0358 53.3484 18.1548 53.086 23.2301 48.0169L25.6163 45.6318L24.3667 44.3832C24.1111 44.1273 23.9675 43.7804 23.9675 43.4187C23.9675 43.0571 24.1111 42.7102 24.3667 42.4543C24.4984 42.3225 24.6548 42.2179 24.827 42.1466C24.9991 42.0753 25.1836 42.0386 25.37 42.0386C25.5563 42.0386 25.7409 42.0753 25.913 42.1466C26.0852 42.2179 26.2416 42.3225 26.3733 42.4543L27.5867 43.6655C27.5867 43.6655 27.5867 43.6614 27.5898 43.6614L27.9278 43.9995C28.4827 44.5543 29.3797 44.5543 29.9345 43.9995C30.1901 43.7436 30.3337 43.3967 30.3337 43.035C30.3337 42.6734 30.1901 42.3265 29.9345 42.0706L27.7111 39.8492C27.6649 39.8049 27.6142 39.7656 27.5597 39.7321L27.5555 39.7279C26.4687 38.6421 24.6933 38.6494 23.5982 39.7466L19.197 44.1291C16.1709 47.151 11.2523 47.1852 8.26873 44.2017L8.02917 43.9621C5.04458 40.9775 5.07569 36.0641 8.10487 33.0421L10.3138 30.8353C10.054 31.0614 9.7183 31.1808 9.3741 31.1695C9.02991 31.1581 8.70278 31.0169 8.4585 30.7741C8.32665 30.6426 8.22204 30.4864 8.15067 30.3144C8.07929 30.1424 8.04255 29.958 8.04255 29.7718C8.04255 29.5856 8.07929 29.4012 8.15067 29.2292C8.22204 29.0573 8.32665 28.901 8.4585 28.7695L8.55702 28.671C8.55702 28.671 8.55391 28.671 8.55391 28.6669L10.0058 27.2161C10.1376 27.0846 10.2422 26.9283 10.3136 26.7564C10.385 26.5844 10.4217 26.4 10.4217 26.2138C10.4217 26.0275 10.385 25.8432 10.3136 25.6712C10.2422 25.4992 10.1376 25.343 10.0058 25.2115C9.74925 24.9563 9.40212 24.813 9.04028 24.813C8.67844 24.813 8.33131 24.9563 8.0748 25.2115L6.58354 26.7006L6.57628 26.6924L4.50013 28.7664C-1.16313 34.4276 -1.18594 43.5857 4.76976 48.7688H4.77184Z" fill="#508C89"/>
<path d="M47.7761 47.5314C52.3598 42.2715 52.0984 34.1609 47.0232 29.0929L44.6359 26.7077L43.3863 27.9563C43.1298 28.2115 42.7826 28.3547 42.4208 28.3547C42.059 28.3547 41.7118 28.2115 41.4553 27.9563C41.3235 27.8248 41.2189 27.6685 41.1475 27.4966C41.0761 27.3246 41.0394 27.1402 41.0394 26.954C41.0394 26.7678 41.0761 26.5834 41.1475 26.4114C41.2189 26.2394 41.3235 26.0832 41.4553 25.9517L42.6676 24.7404C42.6676 24.7404 42.6635 24.7404 42.6635 24.7373L43.0015 24.3992C43.1335 24.2677 43.2383 24.1114 43.3098 23.9393C43.3812 23.7673 43.418 23.5827 43.418 23.3964C43.418 23.2101 43.3812 23.0256 43.3098 22.8535C43.2383 22.6814 43.1335 22.5251 43.0015 22.3936C42.745 22.1384 42.3979 21.9951 42.0361 21.9951C41.6742 21.9951 41.3271 22.1384 41.0706 22.3936L38.8472 24.6149C38.8024 24.6614 38.7628 24.7125 38.7289 24.7674L38.7258 24.7715C37.638 25.8573 37.6463 27.6306 38.7445 28.7237L43.1353 33.1103C46.1604 36.1323 46.1946 41.0457 43.2079 44.0262L42.9673 44.2647C39.9806 47.2462 35.0609 47.2161 32.0359 44.189L29.827 41.9832C30.0532 42.2425 30.1727 42.5779 30.1614 42.9219C30.15 43.2658 30.0087 43.5926 29.7658 43.8364C29.211 44.3902 28.314 44.3902 27.7592 43.8364L27.6606 43.7379C27.6606 43.7379 27.6606 43.741 27.6565 43.741L26.2046 42.2912C26.0729 42.1594 25.9165 42.0549 25.7443 41.9836C25.5722 41.9122 25.3877 41.8755 25.2013 41.8755C25.015 41.8755 24.8304 41.9122 24.6583 41.9836C24.4861 42.0549 24.3297 42.1594 24.198 42.2912C23.9424 42.5471 23.7988 42.894 23.7988 43.2557C23.7988 43.6173 23.9424 43.9642 24.198 44.2201L25.6882 45.7083L25.6799 45.7155L27.755 47.7896C33.4193 53.4622 42.5909 53.4809 47.7761 47.5303V47.5314Z" fill="#823957"/>
<path d="M46.6614 4.44174C41.3985 -0.137812 33.2785 0.124558 28.2042 5.1936L25.817 7.57878L27.0666 8.82634C27.3222 9.08223 27.4658 9.42911 27.4658 9.79078C27.4658 10.1525 27.3222 10.4993 27.0666 10.7552C26.5118 11.31 25.6148 11.31 25.0599 10.7552L23.8466 9.54397C23.8466 9.54397 23.8466 9.54811 23.8435 9.54811L23.5054 9.21004C23.3737 9.07825 23.2173 8.9737 23.0451 8.90238C22.873 8.83105 22.6884 8.79434 22.5021 8.79434C22.3157 8.79434 22.1312 8.83105 21.9591 8.90238C21.7869 8.9737 21.6305 9.07825 21.4988 9.21004C21.2432 9.46593 21.0996 9.81281 21.0996 10.1745C21.0996 10.5362 21.2432 10.883 21.4988 11.1389L23.7222 13.3603C23.7678 13.4059 23.8207 13.4432 23.8736 13.4774L23.8777 13.4816C24.9645 14.5674 26.7399 14.5601 27.8351 13.4629L32.2248 9.07626C35.2509 6.05434 40.1696 6.02011 43.1531 9.00471L43.3927 9.24323C46.3773 12.2289 46.3462 17.1423 43.317 20.1643L41.1081 22.3711C41.3677 22.1448 41.7034 22.0252 42.0476 22.0364C42.3917 22.0476 42.7189 22.1886 42.9634 22.4312C43.0952 22.5627 43.1998 22.7189 43.2712 22.8909C43.3426 23.0629 43.3793 23.2473 43.3793 23.4335C43.3793 23.6197 43.3426 23.8041 43.2712 23.9761C43.1998 24.1481 43.0952 24.3043 42.9634 24.4358L42.8648 24.5354C42.8648 24.5354 42.868 24.5354 42.868 24.5385L41.4161 25.9893C41.2842 26.1208 41.1796 26.277 41.1083 26.449C41.0369 26.621 41.0001 26.8054 41.0001 26.9916C41.0001 27.1778 41.0369 27.3622 41.1083 27.5342C41.1796 27.7062 41.2842 27.8624 41.4161 27.9939C41.6726 28.2491 42.0197 28.3924 42.3816 28.3924C42.7434 28.3924 43.0905 28.2491 43.3471 27.9939L44.8373 26.5057L44.8445 26.513L46.9207 24.44C52.5995 18.7777 52.6182 9.62071 46.6614 4.44071V4.44174Z" fill="#EA6758"/>
<path d="M68.5009 38.9075C68.5891 38.6799 68.6959 38.46 68.8203 38.25C68.9271 38.0799 69.0484 37.9431 69.1884 37.8445C69.3295 37.745 69.4819 37.6734 69.6489 37.6237C69.8158 37.578 70.0014 37.5552 70.2151 37.5552C70.4277 37.5552 70.6216 37.578 70.7927 37.6237C70.9638 37.6693 71.1204 37.7419 71.2532 37.8445C71.3964 37.9562 71.5174 38.0937 71.6099 38.25C71.7167 38.4211 71.8235 38.641 71.9293 38.9075L75.7954 49.4137L76.4529 49.6522C76.7194 49.7445 76.8936 49.8431 76.9817 49.9426C77.0689 50.0401 77.1103 50.1842 77.1103 50.3709C77.1103 50.5679 77.0419 50.7318 76.9133 50.8573C76.7795 50.9817 76.5856 51.0471 76.3346 51.0471H72.7693C72.5183 51.0471 72.3244 50.9817 72.1917 50.8573C72.1261 50.7947 72.0746 50.7189 72.0406 50.6348C72.0066 50.5508 71.991 50.4605 71.9946 50.3699C71.9946 50.1853 72.0434 50.0442 72.1419 49.953C72.2414 49.8617 72.4312 49.7663 72.7092 49.6761L73.4454 49.4376L72.6708 47.2691H67.3912L66.6155 49.4365L67.3529 49.6751C67.6308 49.7674 67.8195 49.8617 67.9191 49.953C68.0186 50.0442 68.0674 50.1853 68.0674 50.3709C68.0674 50.5679 67.9989 50.7318 67.8703 50.8573C67.7366 50.9817 67.5426 51.0471 67.2917 51.0471H64.1256C63.8746 51.0471 63.6776 50.9817 63.5366 50.8573C63.4679 50.7965 63.4135 50.7213 63.3773 50.637C63.3411 50.5528 63.3239 50.4615 63.3271 50.3699C63.3271 50.1853 63.3727 50.0442 63.4681 49.9416C63.5594 49.8431 63.7346 49.7445 63.9846 49.6533L64.6431 49.4148L68.5009 38.9075ZM72.1875 45.81L70.7326 41.7511C70.6293 41.4929 70.5366 41.2307 70.4546 40.965C70.3841 40.7352 70.3105 40.5063 70.2337 40.2785C70.1653 40.0545 70.1093 39.8336 70.0554 39.621H70.017C69.9486 39.818 69.8843 40.0389 69.82 40.2785C69.7515 40.4755 69.6789 40.7068 69.5991 40.965C69.5175 41.2307 69.4251 41.4929 69.3222 41.7511L67.889 45.81H72.1875ZM83.8272 42.7082C83.7596 42.6952 83.6936 42.675 83.6302 42.6481C83.5493 42.6367 83.4622 42.617 83.3637 42.5983C83.2495 42.577 83.1335 42.5666 83.0173 42.5672C82.2115 42.5672 81.5499 42.8638 81.0262 43.4528C80.5046 44.0408 80.2422 44.9524 80.2422 46.1792C80.2422 47.3303 80.5087 48.1911 81.0376 48.7687C81.5654 49.3463 82.2872 49.6305 83.1998 49.6305C83.4508 49.6305 83.6717 49.6118 83.8656 49.5703C84.0554 49.5288 84.2265 49.4936 84.3706 49.4594C84.5158 49.4262 84.6403 49.3951 84.7471 49.3608C84.8428 49.3292 84.9429 49.3128 85.0437 49.3121C85.2303 49.3121 85.3703 49.3608 85.4689 49.4594C85.5684 49.5589 85.6172 49.7031 85.6172 49.8887C85.6172 50.0857 85.53 50.2724 85.3589 50.4466C85.2404 50.5586 85.1058 50.6523 84.9597 50.7245C84.7641 50.8263 84.5609 50.9126 84.352 50.9828C84.0915 51.0681 83.8244 51.1316 83.5534 51.1725C83.2338 51.2197 82.9111 51.2425 82.588 51.241C81.1672 51.241 80.0452 50.8231 79.2197 49.9872C78.3952 49.1524 77.9856 47.9795 77.9856 46.4634C77.9856 45.64 78.1142 44.8922 78.3724 44.2161C78.6112 43.57 78.9813 42.9803 79.4592 42.4842C79.9266 42.0036 80.4903 41.6272 81.1133 41.3798C81.7521 41.1205 82.4625 40.9919 83.2455 40.9919C83.7889 40.9919 84.2306 41.0417 84.5687 41.1402C84.9068 41.2388 85.1577 41.3684 85.3175 41.5281C85.4169 41.634 85.4851 41.7654 85.5145 41.9077C85.5529 42.0674 85.5757 42.364 85.5757 42.8037V43.43C85.5757 43.5669 85.5684 43.7722 85.557 44.0377C85.5414 44.2762 85.4803 44.4474 85.3662 44.5542C85.2435 44.6639 85.0827 44.7213 84.9182 44.7139C84.7534 44.7216 84.5921 44.6642 84.4692 44.5542C84.3551 44.4474 84.268 44.2773 84.1995 44.0408L83.8262 42.7082H83.8272ZM88.4493 42.7082H87.6134C87.096 42.7082 86.8377 42.4884 86.8377 42.0518C86.8377 41.8008 86.9176 41.5924 87.0763 41.4368C87.237 41.2771 87.4683 41.1973 87.7721 41.1973H88.468L88.7915 39.7247C88.8869 39.2995 89.0155 38.9988 89.1825 38.8204C89.3505 38.642 89.59 38.5508 89.898 38.5508C90.1366 38.5508 90.3232 38.6109 90.4477 38.7291C90.5742 38.8463 90.6385 39.0299 90.6385 39.2642V41.1931H92.5363C93.0372 41.1931 93.2881 41.414 93.2881 41.8506C93.2881 42.1161 93.2124 42.3245 93.06 42.477C92.9075 42.6284 92.6763 42.7051 92.3569 42.7051H90.6385V47.8385C90.6385 48.4762 90.7339 48.9201 90.9237 49.1711C91.1135 49.422 91.4028 49.5506 91.7823 49.5506C92.0603 49.5506 92.277 49.5237 92.4357 49.4708C92.5964 49.4179 92.7478 49.3909 92.892 49.3909C93.0372 49.3909 93.1512 49.4365 93.2383 49.5319C93.3265 49.6232 93.368 49.7559 93.368 49.9302C93.368 50.0484 93.3452 50.1583 93.2995 50.2568C93.2502 50.3614 93.1863 50.4585 93.1097 50.5451C93.0029 50.6364 92.782 50.766 92.4409 50.9257C92.1017 51.0844 91.6154 51.1642 90.9766 51.1642C90.0453 51.1642 89.392 50.9174 89.0166 50.4279C88.636 49.9385 88.4493 49.2623 88.4493 48.3964V42.7082V42.7082ZM96.2727 42.8493L95.2149 42.6709C94.9764 42.618 94.8084 42.5413 94.7172 42.4428C94.6201 42.3302 94.57 42.1847 94.5772 42.0362C94.5772 41.8392 94.6228 41.6878 94.7172 41.5882C94.8084 41.4897 94.9837 41.3985 95.2346 41.3186C95.8546 41.171 96.4899 41.0973 97.1272 41.0988C97.6447 41.0988 97.9983 41.19 98.185 41.3757C98.3706 41.5623 98.4619 41.9077 98.4619 42.4127V49.4376L99.3963 49.6948C99.6213 49.7487 99.7769 49.8244 99.8567 49.9229C99.9366 50.0214 99.9749 50.1511 99.9749 50.3108C99.9749 50.5348 99.9065 50.7173 99.7655 50.8459C99.6244 50.9786 99.4305 51.0429 99.1764 51.0429H95.412C95.161 51.0429 94.9671 50.9786 94.8343 50.8531C94.769 50.7908 94.7177 50.7153 94.6837 50.6316C94.6497 50.548 94.6339 50.458 94.6373 50.3678C94.6373 50.1811 94.6788 50.0411 94.7659 49.9499C94.853 49.8586 95.021 49.7788 95.2751 49.7114L96.2706 49.4334V42.8482L96.2727 42.8493ZM95.8921 38.3496C95.8921 37.9399 96.029 37.5977 96.2986 37.324C96.5724 37.0512 96.9146 36.9185 97.3253 36.9185C97.736 36.9185 98.074 37.0471 98.3406 37.3053C98.606 37.5645 98.7388 37.8974 98.7388 38.3112C98.7388 38.7364 98.6019 39.0828 98.3323 39.3555C98.0585 39.6293 97.7163 39.762 97.3056 39.762C96.896 39.762 96.5569 39.6334 96.2914 39.3752C96.0249 39.116 95.8921 38.7748 95.8921 38.3496V38.3496ZM101.362 42.8068L100.883 42.6284C100.605 42.5371 100.417 42.42 100.317 42.2789C100.215 42.1294 100.163 41.9516 100.169 41.7708C100.169 41.6111 100.229 41.4742 100.347 41.3642C100.465 41.2502 100.64 41.1931 100.865 41.1931H104.209C104.433 41.1931 104.608 41.2502 104.727 41.3642C104.844 41.4783 104.905 41.6111 104.905 41.7708C104.905 41.9678 104.852 42.1275 104.745 42.2374C104.638 42.3515 104.445 42.4656 104.168 42.5869L103.632 42.7839L105.384 47.322C105.475 47.5605 105.555 47.7814 105.624 47.9899L105.802 48.5561C105.855 48.7272 105.916 48.8942 105.98 49.0539H106.019C106.072 48.8942 106.125 48.7272 106.178 48.5561L106.357 47.9899C106.433 47.757 106.519 47.5276 106.615 47.3023L108.368 42.7839L107.809 42.5869C107.532 42.4687 107.338 42.3515 107.231 42.2374C107.124 42.1234 107.071 41.9678 107.071 41.7708C107.071 41.6942 107.086 41.6184 107.117 41.5483C107.148 41.4782 107.193 41.4155 107.25 41.3642C107.368 41.2502 107.55 41.1931 107.786 41.1931H110.713C110.937 41.1931 111.112 41.2502 111.23 41.3642C111.348 41.4783 111.408 41.6111 111.408 41.7708C111.408 41.9678 111.36 42.1389 111.26 42.2789C111.161 42.42 110.972 42.534 110.694 42.6284L110.215 42.8068L107.345 49.7902C107.258 50.0177 107.151 50.2374 107.026 50.4466C106.936 50.5967 106.826 50.7336 106.699 50.8531C106.585 50.9517 106.452 51.0242 106.3 51.073C106.128 51.1213 105.95 51.1443 105.772 51.1414C105.574 51.1414 105.396 51.1186 105.243 51.073C105.095 51.0305 104.959 50.9554 104.844 50.8531C104.714 50.7355 104.604 50.5983 104.517 50.4466C104.392 50.2374 104.285 50.0177 104.198 49.7902L101.362 42.8068V42.8068ZM114.259 46.3877C114.312 47.4517 114.616 48.2564 115.168 48.8071C115.718 49.3567 116.482 49.6305 117.456 49.6305C117.79 49.6305 118.071 49.6118 118.304 49.5703C118.535 49.5288 118.74 49.4874 118.911 49.4407C119.086 49.3951 119.231 49.3494 119.353 49.3121C119.461 49.2728 119.576 49.2521 119.691 49.2509C119.877 49.2509 120.018 49.3007 120.109 49.3992C120.204 49.4977 120.25 49.6419 120.25 49.8285C120.251 49.9306 120.234 50.032 120.2 50.1282C120.161 50.2298 120.096 50.319 120.01 50.3865C119.812 50.5835 119.444 50.7774 118.904 50.9631C118.368 51.1497 117.68 51.241 116.843 51.241C116.099 51.241 115.43 51.1342 114.833 50.9216C114.265 50.7269 113.75 50.4032 113.328 49.9758C112.907 49.5364 112.588 49.0105 112.392 48.4348C112.173 47.8229 112.066 47.1281 112.066 46.3462C112.066 45.5228 112.184 44.7813 112.424 44.1165C112.639 43.4923 112.982 42.9198 113.43 42.4355C113.858 41.9777 114.378 41.6152 114.955 41.3715C115.559 41.1155 116.21 40.9863 116.866 40.9919C118.048 40.9919 118.977 41.3414 119.657 42.0362C120.333 42.7311 120.671 43.737 120.671 45.052C120.671 45.5031 120.568 45.837 120.364 46.0579C120.159 46.2777 119.854 46.3845 119.455 46.3845H114.259V46.3877V46.3877ZM118.52 45.0965C118.493 44.2275 118.299 43.5897 117.938 43.1832C117.768 42.9855 117.556 42.8281 117.317 42.7223C117.078 42.6165 116.819 42.565 116.558 42.5714C116.271 42.5645 115.986 42.6213 115.723 42.7377C115.46 42.854 115.226 43.0271 115.038 43.2444C114.639 43.6924 114.392 44.3105 114.297 45.1007H118.52V45.0965ZM129.316 39.2871L128.319 39.0288C128.054 38.9376 127.871 38.836 127.772 38.7219C127.673 38.6078 127.623 38.4481 127.623 38.2355C127.623 38.0758 127.68 37.9389 127.794 37.829C127.909 37.7149 128.084 37.6579 128.323 37.6579H132.767C133.007 37.6579 133.185 37.7149 133.303 37.829C133.42 37.9431 133.482 38.0758 133.482 38.2355C133.482 38.4481 133.425 38.6151 133.31 38.7333C133.196 38.8505 133.007 38.9531 132.744 39.033L131.569 39.3099V49.4365H135.234L135.751 47.6674C135.815 47.4288 135.906 47.2608 136.02 47.1592C136.146 47.056 136.306 47.0031 136.469 47.0109C136.655 47.0109 136.807 47.0597 136.929 47.1582C137.047 47.2577 137.115 47.4278 137.127 47.6674C137.127 47.8799 137.131 48.0583 137.138 48.2066C137.145 48.3518 137.15 48.4835 137.15 48.6059V49.5962C137.15 49.953 137.134 50.2112 137.1 50.3709C137.073 50.5185 137.008 50.6563 136.91 50.7702C136.805 50.8619 136.684 50.9326 136.552 50.9786C136.385 51.0291 136.211 51.0523 136.036 51.0471H128.406C128.156 51.0471 127.962 50.9828 127.829 50.8573C127.763 50.7948 127.712 50.7191 127.678 50.6353C127.644 50.5514 127.628 50.4613 127.632 50.3709C127.632 50.1842 127.673 50.0442 127.76 49.953C127.848 49.8628 128.011 49.7746 128.248 49.6948L129.323 49.4179V39.2871H129.316V39.2871ZM139.814 42.8493L138.757 42.6709C138.517 42.618 138.35 42.5413 138.259 42.4428C138.162 42.3303 138.112 42.1847 138.119 42.0362C138.119 41.8392 138.165 41.6878 138.259 41.5882C138.35 41.4897 138.526 41.3985 138.777 41.3186C139.397 41.1711 140.032 41.0973 140.669 41.0988C141.186 41.0988 141.539 41.19 141.726 41.3757C141.913 41.5623 142.004 41.9077 142.004 42.4127V49.4376L142.938 49.6948C143.162 49.7487 143.319 49.8244 143.399 49.9229C143.479 50.0214 143.516 50.1511 143.516 50.3108C143.516 50.5348 143.448 50.7173 143.308 50.8459C143.166 50.9786 142.973 51.0429 142.718 51.0429H138.955C138.704 51.0429 138.51 50.9786 138.377 50.8531C138.312 50.791 138.26 50.7155 138.226 50.6318C138.192 50.5481 138.176 50.4581 138.179 50.3678C138.179 50.1811 138.221 50.0411 138.309 49.9499C138.396 49.8586 138.563 49.7788 138.818 49.7114L139.814 49.4334V42.8482V42.8493ZM139.434 38.3496C139.434 37.9399 139.571 37.5977 139.841 37.324C140.114 37.0512 140.457 36.9185 140.867 36.9185C141.277 36.9185 141.616 37.0471 141.882 37.3053C142.148 37.5645 142.281 37.8974 142.281 38.3112C142.281 38.7364 142.144 39.0828 141.874 39.3555C141.601 39.6293 141.258 39.762 140.848 39.762C140.437 39.762 140.099 39.6334 139.833 39.3752C139.567 39.116 139.434 38.7748 139.434 38.3496V38.3496ZM144.905 42.8068L144.425 42.6284C144.148 42.5371 143.958 42.42 143.859 42.2789C143.757 42.1296 143.705 41.9516 143.711 41.7708C143.711 41.6111 143.771 41.4742 143.889 41.3642C144.008 41.2502 144.182 41.1931 144.406 41.1931H147.751C147.975 41.1931 148.15 41.2502 148.268 41.3642C148.386 41.4783 148.447 41.6111 148.447 41.7708C148.447 41.9678 148.393 42.1275 148.287 42.2374C148.181 42.3515 147.987 42.4656 147.71 42.5869L147.174 42.7839L148.926 47.322C149.082 47.7277 149.221 48.1393 149.344 48.5561C149.397 48.7272 149.458 48.8942 149.522 49.0539H149.561C149.614 48.8942 149.667 48.7272 149.721 48.5561L149.899 47.9899C149.963 47.7845 150.05 47.5574 150.157 47.3023L151.91 42.7839L151.351 42.5869C151.073 42.4687 150.88 42.3515 150.773 42.2374C150.666 42.1234 150.613 41.9678 150.613 41.7708C150.613 41.6942 150.628 41.6184 150.659 41.5483C150.69 41.4782 150.735 41.4155 150.792 41.3642C150.91 41.2502 151.093 41.1931 151.328 41.1931H154.254C154.48 41.1931 154.654 41.2502 154.772 41.3642C154.89 41.4783 154.95 41.6111 154.95 41.7708C154.95 41.9678 154.902 42.1389 154.802 42.2789C154.704 42.42 154.514 42.534 154.236 42.6284L153.757 42.8068L150.887 49.7902C150.8 50.0177 150.693 50.2374 150.568 50.4466C150.478 50.5965 150.368 50.7333 150.241 50.8531C150.127 50.9517 149.993 51.0242 149.842 51.073C149.67 51.1213 149.492 51.1444 149.313 51.1414C149.135 51.1441 148.957 51.121 148.785 51.073C148.637 51.0305 148.501 50.9554 148.386 50.8531C148.256 50.7355 148.146 50.5983 148.059 50.4466C147.934 50.2374 147.827 50.0177 147.74 49.7902L144.905 42.8068V42.8068ZM157.676 42.8493L156.619 42.6709C156.379 42.618 156.212 42.5413 156.121 42.4428C156.024 42.3304 155.973 42.1848 155.98 42.0362C155.98 41.8392 156.026 41.6878 156.121 41.5882C156.212 41.4897 156.387 41.3985 156.638 41.3186C157.258 41.171 157.894 41.0972 158.531 41.0988C159.048 41.0988 159.401 41.19 159.588 41.3757C159.774 41.5623 159.865 41.9077 159.865 42.4127V49.4376L160.8 49.6948C161.024 49.7487 161.18 49.8244 161.26 49.9229C161.34 50.0214 161.378 50.1511 161.378 50.3108C161.378 50.5348 161.309 50.7173 161.168 50.8459C161.028 50.9786 160.834 51.0429 160.579 51.0429H156.817C156.566 51.0429 156.372 50.9786 156.238 50.8531C156.173 50.7908 156.122 50.7152 156.088 50.6316C156.054 50.5479 156.038 50.458 156.041 50.3678C156.041 50.1811 156.083 50.0411 156.17 49.9499C156.258 49.8586 156.425 49.7788 156.68 49.7114L157.676 49.4334V42.8482V42.8493ZM157.299 38.3496C157.299 37.9399 157.436 37.5977 157.706 37.324C157.98 37.0512 158.322 36.9185 158.732 36.9185C159.143 36.9185 159.481 37.0471 159.748 37.3053C160.013 37.5645 160.146 37.8974 160.146 38.3112C160.146 38.7364 160.009 39.0828 159.739 39.3555C159.466 39.6293 159.123 39.762 158.714 39.762C158.303 39.762 157.964 39.6334 157.698 39.3752C157.429 39.116 157.299 38.7748 157.299 38.3496V38.3496ZM164.032 42.8493L162.975 42.6709C162.735 42.617 162.568 42.5413 162.477 42.4428C162.38 42.3304 162.329 42.1848 162.336 42.0362C162.336 41.8392 162.382 41.6868 162.477 41.5882C162.568 41.4897 162.743 41.3985 162.994 41.3186C163.279 41.2481 163.569 41.1948 163.861 41.1589C164.175 41.1188 164.491 41.0987 164.807 41.0988C165.26 41.0988 165.575 41.1859 165.753 41.357C165.933 41.5281 166.024 41.8351 166.024 42.2717V42.5911L166.061 42.6097C166.232 42.3059 166.46 42.0394 166.738 41.8122C166.978 41.6152 167.293 41.4327 167.684 41.2657C168.076 41.0988 168.562 41.0148 169.147 41.0148C170.315 41.0148 171.208 41.33 171.828 41.9605C172.443 42.5911 172.755 43.5368 172.755 44.7968V49.4324L173.652 49.6917C173.892 49.7601 174.055 49.84 174.139 49.9416C174.226 50.0411 174.268 50.1853 174.268 50.3709C174.271 50.4613 174.254 50.5512 174.22 50.6349C174.186 50.7186 174.135 50.7943 174.07 50.8573C173.937 50.9817 173.744 51.0471 173.493 51.0471H169.866C169.615 51.0471 169.418 50.9828 169.277 50.8573C169.208 50.7967 169.154 50.7217 169.118 50.6376C169.082 50.5535 169.064 50.4624 169.068 50.3709C169.068 50.1842 169.113 50.0442 169.209 49.9416C169.3 49.8431 169.467 49.7601 169.706 49.6917L170.562 49.4324V45.3548C170.562 44.3872 170.375 43.6955 170.003 43.2859C169.631 42.8752 169.095 42.6709 168.391 42.6709C168.074 42.6657 167.759 42.7239 167.464 42.842C167.19 42.9561 166.962 43.0847 166.776 43.2288C166.563 43.4 166.376 43.5814 166.217 43.7681V49.4376L167.095 49.6948C167.335 49.7632 167.498 49.8431 167.581 49.9457C167.67 50.0442 167.711 50.1894 167.711 50.3751C167.711 50.5721 167.643 50.7359 167.502 50.8604C167.362 50.9859 167.175 51.0512 166.935 51.0512H163.172C162.922 51.0512 162.728 50.9859 162.594 50.8604C162.529 50.798 162.478 50.7225 162.444 50.6388C162.41 50.5552 162.394 50.4653 162.397 50.3751C162.397 50.1884 162.439 50.0484 162.526 49.9571C162.614 49.8659 162.781 49.786 163.036 49.7186L164.032 49.4407V42.8503V42.8493ZM180.411 49.4749C181.764 49.4749 182.729 49.7217 183.3 50.2112C183.869 50.7017 184.154 51.3468 184.154 52.1401C184.154 52.6037 184.04 53.0558 183.816 53.4924C183.573 53.9504 183.233 54.3504 182.821 54.6653C182.383 55.0106 181.836 55.2875 181.186 55.5011C180.536 55.7137 179.79 55.8195 178.955 55.8195C178.199 55.8195 177.552 55.7469 177.012 55.5997C176.476 55.4545 176.031 55.2502 175.689 54.9919C175.366 54.7585 175.106 54.448 174.933 54.0887C174.774 53.746 174.692 53.3725 174.693 52.9946C174.693 52.6379 174.755 52.3185 174.872 52.0374C174.99 51.7605 175.138 51.5137 175.309 51.3011C175.481 51.0885 175.659 50.9174 175.837 50.7847C175.988 50.6713 176.144 50.565 176.305 50.4663C176.108 50.3325 175.937 50.1552 175.796 49.9271C175.655 49.7031 175.586 49.4179 175.586 49.0725C175.586 48.8485 175.625 48.636 175.705 48.4348C175.784 48.2377 175.876 48.0583 175.982 47.9059C176.082 47.7595 176.2 47.6257 176.332 47.5077C176.457 47.3936 176.567 47.3106 176.659 47.2567C176.286 47.0327 175.971 46.6988 175.712 46.2622C175.454 45.8266 175.325 45.3019 175.325 44.69C175.325 44.1591 175.419 43.6685 175.613 43.2174C175.803 42.7721 176.088 42.3741 176.449 42.0518C176.814 41.7251 177.267 41.4711 177.802 41.2844C178.339 41.0977 178.947 41.0075 179.624 41.0075C179.874 41.0075 180.107 41.022 180.312 41.049C180.516 41.0759 180.688 41.1019 180.821 41.1288C180.981 41.1817 181.114 41.2201 181.221 41.246C181.604 40.6767 181.961 40.2214 182.285 39.8834C182.611 39.5453 182.946 39.3752 183.292 39.3752C183.533 39.3665 183.769 39.452 183.949 39.6137C184.12 39.7734 184.2 39.9663 184.189 40.1903C184.189 40.377 184.14 40.5284 184.04 40.6508C183.942 40.768 183.809 40.8893 183.641 41.0075C183.474 41.1247 183.288 41.2543 183.083 41.3871C182.878 41.5198 182.661 41.6982 182.436 41.9222C182.714 42.1462 182.946 42.4542 183.132 42.8379C183.318 43.2216 183.41 43.6727 183.41 44.1891C183.41 44.7211 183.314 45.2106 183.12 45.6617C182.926 46.1139 182.645 46.5017 182.273 46.8284C181.901 47.1551 181.448 47.4091 180.92 47.5958C180.388 47.7814 179.783 47.8727 179.107 47.8727C178.92 47.8727 178.745 47.8644 178.578 47.853C178.434 47.8436 178.29 47.8235 178.149 47.7928C178.015 47.7684 177.882 47.7418 177.75 47.713C177.688 47.7718 177.635 47.838 177.59 47.91C177.548 47.9977 177.511 48.0878 177.48 48.1797C177.402 48.4182 177.417 48.6774 177.521 48.9056C177.592 49.0338 177.699 49.1381 177.829 49.2053C177.974 49.2851 178.176 49.3494 178.426 49.3951C178.677 49.4407 179.004 49.4635 179.403 49.4635H180.411V49.4739V49.4749ZM179.057 51.0844C178.806 51.0844 178.582 51.0771 178.388 51.0657C178.088 51.0446 177.791 50.9974 177.499 50.9247C177.355 51.0512 177.23 51.1988 177.13 51.3623C177.026 51.5131 176.946 51.6797 176.894 51.856C176.834 52.053 176.803 52.2697 176.803 52.5093C176.803 53.0361 176.997 53.4582 177.385 53.7734C177.772 54.0887 178.418 54.2474 179.324 54.2474C180.217 54.2474 180.878 54.0659 181.312 53.705C181.744 53.3441 181.961 52.9189 181.961 52.4294C181.961 52.0074 181.817 51.6765 181.532 51.4411C181.246 51.2026 180.719 51.0844 179.947 51.0844H179.057V51.0844ZM177.526 44.4204C177.526 44.998 177.7 45.4574 178.046 45.7997C178.392 46.1419 178.848 46.312 179.407 46.312C179.954 46.312 180.395 46.1522 180.73 45.8297C181.064 45.5072 181.232 45.0592 181.232 44.4816C181.232 43.904 181.057 43.4445 180.71 43.1023C180.365 42.7611 179.909 42.59 179.35 42.59C178.802 42.59 178.361 42.7497 178.028 43.0733C177.688 43.3917 177.526 43.8438 177.526 44.4214V44.4204ZM63.3157 5.57299L61.6699 5.07936C61.1223 4.88958 60.7314 4.66869 60.496 4.42187C60.2637 4.17506 60.1465 3.83387 60.1465 3.39313C60.1465 3.06232 60.2678 2.78128 60.5146 2.55002C60.7614 2.31876 61.1192 2.20054 61.5869 2.20054H69.8625C70.3561 2.20054 70.7243 2.31876 70.9721 2.55002C71.2189 2.78232 71.3403 3.06232 71.3403 3.39313C71.3403 3.83387 71.2303 4.17506 71.0094 4.42187C70.7896 4.66869 70.4049 4.88854 69.8583 5.07936L67.9647 5.57299V18.6874C67.9647 21.5392 68.562 23.6278 69.7557 24.9573C70.9483 26.2857 72.5764 26.9505 74.6318 26.9505C76.6623 26.9505 78.2397 26.3386 79.3649 25.1201C80.49 23.9016 81.0521 21.9499 81.0521 19.2608V5.56884L79.1595 5.07521C78.5819 4.88543 78.194 4.66558 77.9846 4.41876C77.7792 4.17195 77.6766 3.82973 77.6766 3.38899C77.6766 3.05921 77.7989 2.77713 78.0457 2.54691C78.2926 2.31462 78.6503 2.19743 79.118 2.19743H86.8149C87.2816 2.19743 87.6394 2.31462 87.8872 2.54691C88.134 2.77817 88.2554 3.05921 88.2554 3.38899C88.2554 3.82973 88.1372 4.17195 87.9059 4.41876C87.6736 4.66558 87.2826 4.88543 86.7309 5.07521L85.0851 5.56884V18.7257C85.0851 22.6177 84.158 25.5183 82.3059 27.4213C80.4558 29.3274 77.7035 30.2804 74.0542 30.2804C70.4318 30.2804 67.7366 29.3917 65.9653 27.6069C64.194 25.8263 63.3126 23.0585 63.3126 19.3034V5.57299H63.3167H63.3157ZM92.0105 12.9318L89.8296 12.5637C89.3349 12.4527 88.9927 12.2971 88.7988 12.0887C88.6049 11.8834 88.5105 11.6023 88.5105 11.2456C88.5105 10.8359 88.6049 10.5248 88.7988 10.3195C88.9886 10.1142 89.3463 9.92854 89.8711 9.76469C90.4598 9.6155 91.0578 9.50534 91.661 9.43491C92.3091 9.35285 92.9616 9.31095 93.6148 9.30943C94.546 9.30943 95.2004 9.4878 95.5686 9.84454C95.9377 10.2013 96.1234 10.8318 96.1234 11.7351V12.3925L96.2074 12.434C96.5665 11.8032 97.0411 11.2456 97.6063 10.7903C98.1 10.3797 98.7502 10.0042 99.5601 9.65891C100.369 9.31669 101.377 9.14558 102.586 9.14558C104.999 9.14558 106.846 9.79891 108.12 11.0973C109.397 12.3998 110.036 14.3515 110.036 16.9565V26.5367L111.887 27.0718C112.381 27.2087 112.716 27.3798 112.894 27.5841C113.073 27.7894 113.161 28.086 113.161 28.4697C113.161 28.8794 113.024 29.2174 112.75 29.4757C112.476 29.738 112.077 29.8666 111.557 29.8666H104.064C103.543 29.8666 103.137 29.738 102.852 29.4757C102.71 29.3498 102.598 29.1945 102.523 29.0207C102.449 28.8469 102.413 28.6589 102.418 28.4697C102.418 28.086 102.514 27.7894 102.708 27.5841C102.897 27.3798 103.244 27.2087 103.737 27.0718L105.509 26.5367V18.1077C105.509 16.1062 105.125 14.6823 104.357 13.8319C103.589 12.9816 102.475 12.5564 101.023 12.5564C100.309 12.5564 99.67 12.6736 99.108 12.9048C98.5999 13.1064 98.1216 13.3761 97.6862 13.7065C97.2454 14.0632 96.8617 14.4324 96.5351 14.8151V26.5336L98.3437 27.0687C98.8383 27.2045 99.1723 27.3757 99.3506 27.581C99.53 27.7863 99.6172 28.0819 99.6172 28.4656C99.6172 28.8752 99.472 29.2133 99.1837 29.4715C98.8954 29.7339 98.5034 29.8625 98.0087 29.8625H90.2278C89.7072 29.8625 89.308 29.7339 89.0352 29.4715C88.7615 29.2102 88.6246 28.8752 88.6246 28.4656C88.6246 28.0819 88.7117 27.7936 88.89 27.6038C89.0684 27.414 89.4189 27.2471 89.9395 27.1102L91.996 26.5325V12.9318H92.0105V12.9318ZM117.859 12.9318L115.677 12.5637C115.183 12.4537 114.841 12.2971 114.647 12.0887C114.453 11.8834 114.358 11.6023 114.358 11.2456C114.358 10.8359 114.453 10.5248 114.647 10.3195C114.837 10.1142 115.194 9.92854 115.719 9.76469C116.314 9.61463 116.918 9.50446 117.528 9.43491C118.224 9.35089 118.925 9.30898 119.627 9.30943C120.698 9.30943 121.424 9.50336 121.809 9.88602C122.192 10.2697 122.386 10.9842 122.386 12.0244V26.5367L124.32 27.0718C124.788 27.1828 125.103 27.3383 125.267 27.5468C125.431 27.7521 125.514 28.0217 125.514 28.3484C125.514 28.8151 125.37 29.1832 125.081 29.457C124.792 29.7297 124.389 29.8666 123.868 29.8666H116.087C115.567 29.8666 115.168 29.738 114.894 29.4757C114.62 29.2133 114.483 28.8794 114.483 28.4697C114.483 28.086 114.571 27.7977 114.75 27.6079C114.928 27.4182 115.277 27.2502 115.799 27.1143L117.856 26.5367V12.9318H117.859V12.9318ZM117.076 3.63995C117.076 2.78958 117.357 2.08336 117.92 1.52128C118.482 0.959208 119.189 0.678171 120.041 0.678171C120.892 0.678171 121.592 0.944689 122.138 1.4798C122.686 2.01491 122.964 2.70662 122.964 3.55699C122.964 4.43432 122.683 5.15506 122.12 5.71402C121.558 6.27506 120.85 6.5561 119.999 6.5561C119.148 6.5561 118.448 6.29061 117.901 5.7555C117.349 5.2235 117.076 4.51728 117.076 3.63995ZM129.673 12.6435H127.943C126.872 12.6435 126.34 12.1914 126.34 11.2881C126.34 10.7675 126.502 10.3423 126.833 10.0125C127.164 9.68069 127.643 9.51787 128.274 9.51787H129.711L130.376 6.47624C130.57 5.59995 130.839 4.97669 131.186 4.60439C131.532 4.23624 132.021 4.05062 132.66 4.05062C133.158 4.05062 133.539 4.17195 133.801 4.41876C134.063 4.66558 134.196 5.03373 134.196 5.52839V9.51476H138.119C139.153 9.51476 139.67 9.96587 139.67 10.8702C139.67 11.4167 139.514 11.8502 139.199 12.1644C138.887 12.4797 138.4 12.6394 137.746 12.6394H134.192V23.2482C134.192 24.5653 134.39 25.481 134.785 26.0057C135.18 26.5253 135.773 26.7877 136.565 26.7877C137.134 26.7877 137.587 26.7337 137.914 26.6238C138.216 26.519 138.533 26.464 138.852 26.461C139.153 26.461 139.389 26.5554 139.567 26.7493C139.745 26.9432 139.833 27.2159 139.833 27.5737C139.833 27.8205 139.784 28.0477 139.688 28.253C139.586 28.469 139.455 28.6697 139.297 28.8493C139.076 29.0432 138.617 29.3014 137.917 29.6312C137.218 29.962 136.211 30.1248 134.892 30.1248C132.972 30.1248 131.619 29.6198 130.836 28.6025C130.053 27.5882 129.661 26.1914 129.661 24.4108V12.6435H129.673V12.6435ZM146.052 20.2522C146.161 22.4466 146.789 24.11 147.93 25.2497C149.07 26.3884 150.648 26.9536 152.658 26.9536C153.346 26.9536 153.932 26.9121 154.414 26.8322C155.149 26.7105 155.873 26.533 156.581 26.3013C156.828 26.2183 157.064 26.1799 157.284 26.1799C157.668 26.1799 157.957 26.2816 158.151 26.4869C158.345 26.6922 158.44 26.9878 158.44 27.3715C158.44 27.5924 158.406 27.7967 158.337 27.9865C158.256 28.1967 158.121 28.3818 157.945 28.5226C157.535 28.9322 156.771 29.3315 155.661 29.7152C154.551 30.0989 153.129 30.2918 151.4 30.2918C149.865 30.2918 148.477 30.0719 147.241 29.6343C146.006 29.1988 144.972 28.5454 144.132 27.6837C143.296 26.8208 142.65 25.7579 142.197 24.4968C141.745 23.2368 141.517 21.7974 141.517 20.1797C141.517 18.4789 141.764 16.9441 142.258 15.5742C142.753 14.2032 143.444 13.0448 144.337 12.1001C145.224 11.1588 146.296 10.4104 147.485 9.90158C148.694 9.38099 150.009 9.11861 151.438 9.11861C153.878 9.11861 155.802 9.83624 157.201 11.2757C158.6 12.7151 159.299 14.7912 159.299 17.5072C159.299 18.4374 159.086 19.1322 158.66 19.5834C158.235 20.0355 157.607 20.2637 156.783 20.2637H146.052V20.2522V20.2522ZM154.863 17.5788C154.806 15.7826 154.407 14.4656 153.661 13.6225C152.917 12.7794 151.967 12.3573 150.807 12.3573C149.537 12.3573 148.492 12.8208 147.663 13.7438C146.834 14.6709 146.325 15.9465 146.131 17.5788H154.863V17.5788ZM176.492 3.63995L174.268 3.27595C173.774 3.16913 173.44 3.00943 173.26 2.80928C173.082 2.60706 172.995 2.32602 172.995 1.97343C172.995 1.56691 173.089 1.26306 173.283 1.05773C173.477 0.856541 173.823 0.670911 174.317 0.508097C174.917 0.357146 175.525 0.24149 176.138 0.161726C176.837 0.0657768 177.542 0.0176156 178.247 0.0175781C179.324 0.0175781 180.053 0.214615 180.441 0.613874C180.829 1.0121 181.018 1.72973 181.018 2.76676V26.4942L182.995 26.7451C183.463 26.8561 183.79 27.0117 183.984 27.2045C184.174 27.3985 184.273 27.6919 184.273 28.0788C184.273 28.4656 184.17 28.7653 183.96 28.9706C183.756 29.1791 183.417 29.3647 182.946 29.5327C182.404 29.7102 181.851 29.8485 181.289 29.9465C180.66 30.059 180.023 30.1148 179.384 30.1134C178.529 30.1134 177.902 29.9081 177.499 29.4985C177.099 29.0878 176.898 28.4842 176.898 27.6909V27.0345L176.815 26.993C176.442 27.6136 175.969 28.1688 175.416 28.6367C174.896 29.0463 174.23 29.4259 173.42 29.7671C172.611 30.1093 171.615 30.2804 170.436 30.2804C167.966 30.2804 165.997 29.4715 164.529 27.8537C163.062 26.2359 162.329 23.7678 162.329 20.4534C162.329 18.6998 162.591 17.1162 163.112 15.7038C163.632 14.2914 164.374 13.0988 165.335 12.126C166.297 11.1543 167.467 10.4066 168.855 9.88602C170.238 9.36647 171.797 9.1041 173.527 9.1041C173.964 9.1041 174.363 9.12276 174.72 9.16528C175.077 9.20676 175.393 9.24098 175.667 9.26691C175.967 9.35091 176.245 9.4038 176.492 9.43076L176.576 9.3478C176.547 8.98361 176.527 8.61883 176.514 8.25373C176.5 7.83217 176.493 7.41035 176.496 6.98854V3.63995H176.492V3.63995ZM176.492 13.1786C176.183 13.0264 175.867 12.8894 175.545 12.7679C174.667 12.4858 173.75 12.3471 172.828 12.3573C171.044 12.3573 169.623 12.9474 168.567 14.1275C167.51 15.3045 166.981 17.2262 166.981 19.8841C166.981 22.3522 167.449 24.1256 168.38 25.2072C169.311 26.2899 170.505 26.8333 171.961 26.8333C172.702 26.8333 173.352 26.7223 173.915 26.5025C174.424 26.3123 174.903 26.0488 175.336 25.7205C175.772 25.3929 176.16 25.0053 176.488 24.5694V13.1786H176.492V13.1786Z" fill="white"/>
</g>
<defs>
<clipPath id="clip0_5194_23683">
<rect width="184.593" height="56" fill="white"/>
</clipPath>
</defs>
</svg>
